<svg xmlns="http://www.w3.org/2000/svg" viewBox="0 0 436.74 183.31"><defs><style>.cls-1{fill:#e2382a;}.cls-1,.cls-2,.cls-3,.cls-4,.cls-5{stroke:#000;stroke-miterlimit:10;}.cls-1,.cls-2,.cls-3{fill-rule:evenodd;}.cls-2{fill:#fff;}.cls-4{fill:none;}</style></defs><title>bdu_logo_2013 (standard)</title><g id="Bär"><polygon class="cls-1" points="380.51 44.27 380.48 43.95 380.3 42.88 379.82 41.12 379.15 40.9 378.49 40.72 377.82 40.56 376.98 40.4 376.15 40.28 375.37 40.21 369.86 39.91 364.2 39.67 362.76 39.55 361.36 39.38 360.01 39.2 358.69 38.96 357.03 38.64 355.46 38.24 354.05 37.84 352.69 37.39 351.9 37.07 351.04 36.73 350.25 36.34 349.56 35.96 348.86 35.56 348.16 35.13 347.72 34.82 347.3 34.47 346.89 34.12 346.5 33.73 346.11 33.3 345.74 32.87 345.4 32.39 345.07 31.93 344.84 31.54 344.61 31.12 344.4 30.72 344.22 30.33 344.05 29.93 343.91 29.53 343.4 27.84 343.18 27.34 343.11 27.22 342.61 27.27 342.39 27.6 342.22 28.04 342.05 28.49 341.91 28.91 341.78 29.35 341.7 29.78 341.66 30.23 341.58 30.67 341.56 31.29 341.56 31.61 341.57 31.93 341.66 32.59 341.72 32.94 341.78 33.27 342 34.01 342.13 34.35 342.28 34.71 342.48 35.17 342.7 35.61 342.94 36.05 343.22 36.47 343.51 36.9 343.81 37.31 344.13 37.72 344.5 38.1 344.89 38.49 345.27 38.86 345.67 39.22 346.11 39.56 346.56 39.85 346.96 40.16 347.41 40.41 347.9 40.66 348.58 41.01 349.34 41.32 350.06 41.6 350.9 41.88 351.71 42.1 352.56 42.28 353.85 42.55 355.15 42.77 356.56 42.94 357.96 43.05 360.7 43.18 362.01 43.19 363.26 43.17 371.03 42.94 371.58 42.94 372.14 42.94 372.7 42.97 374.37 43.13 375.97 43.34 379.4 43.99 380.51 44.27 380.51 44.27 380.51 44.27"/><polygon class="cls-2" points="278.92 34.05 279.1 34.04 279.65 33.93 280.16 33.73 280.49 33.52 280.78 33.23 280.88 33.04 280.97 32.61 280.93 32.2 280.42 31.09 279.93 30.2 279.41 29.33 279.09 28.86 278.76 28.39 278.4 27.95 278.22 27.73 278.02 27.5 277.58 27.09 277.1 26.72 276.19 26.11 275.48 25.68 274.9 25.34 275.08 26.02 275.48 27.16 275.67 27.75 275.84 28.33 275.97 28.93 276.09 29.54 276.15 30.03 276.2 30.5 276.22 31 276.21 31.49 276.2 32.01 276.22 32.54 276.25 33.05 276.35 33.39 276.6 33.73 276.83 33.85 277.49 33.99 277.97 34.04 278.45 34.05 278.92 34.05 278.92 34.05 278.92 34.05"/><polygon class="cls-2" points="274.56 34.9 275.04 34.55 275.35 34.27 275.58 33.93 275.75 33.56 275.81 33.37 275.86 33.16 275.86 32.39 275.81 32.23 275.74 31.88 275.6 31.56 275.42 31.15 275.2 30.76 274.98 30.37 274.74 30 274.28 29.37 273.84 28.86 273.58 28.62 273.36 28.41 272.96 28.11 272.56 27.86 272.15 27.65 271.61 27.44 271.13 27.3 270.2 27.03 270.93 29.48 271.05 29.98 271.15 30.48 271.23 31 271.3 31.5 271.36 32.01 271.36 32.54 271.38 33.01 271.43 33.45 271.48 33.91 271.57 34.37 271.63 34.55 271.8 34.88 272.12 35.16 272.31 35.28 272.72 35.4 273.13 35.39 273.71 35.28 274.04 35.16 274.56 34.9 274.56 34.9 274.56 34.9"/><polygon class="cls-2" points="270.46 37.87 270.74 37.62 270.98 37.34 271.15 37.04 271.3 36.71 271.44 36.21 271.48 35.83 271.48 35.24 271.36 34.79 271.23 34.34 271.04 33.9 270.82 33.48 270.45 32.89 270.16 32.54 269.9 32.16 269.43 31.62 268.93 31.09 268.46 30.67 268.02 30.26 267.53 29.89 266.72 29.38 266.11 29.07 266.33 29.73 266.63 30.46 266.81 30.93 266.97 31.39 267.11 31.88 267.22 32.37 267.31 32.89 267.35 33.43 267.35 33.71 267.35 34.65 267.4 35.6 267.48 36.56 267.57 36.94 267.7 37.29 268.22 37.93 268.59 38.12 268.78 38.21 269.17 38.26 269.55 38.23 269.93 38.13 270.11 38.06 270.46 37.87 270.46 37.87 270.46 37.87"/><polygon class="cls-2" points="266.33 39.62 266.68 39.43 266.88 39.3 267.17 39.02 267.44 38.69 267.53 38.51 267.66 38.11 267.7 37.48 267.66 37.17 267.11 36.06 266.74 35.46 266.37 34.88 266.14 34.58 265.89 34.3 265.66 34.01 265.39 33.77 265.12 33.51 264.85 33.29 264.58 33.09 264.28 32.88 263.98 32.71 262.94 32.11 262.29 32.04 261.33 32.04 262.91 34.71 263.08 35.21 263.14 35.49 263.25 36.06 263.29 36.41 263.33 37.04 263.29 37.82 263.31 38.46 263.35 39.13 263.58 39.63 264.58 39.82 264.95 39.85 265.52 39.84 266.02 39.74 266.33 39.62 266.33 39.62 266.33 39.62"/><polygon class="cls-2" points="262.89 42.09 263.21 41.45 263.25 41.28 263.38 40.58 263.39 40.21 263.35 39.82 263.29 39.46 263.14 39 263.04 38.71 262.94 38.44 262.68 37.9 262.49 37.58 262.07 36.96 261.85 36.67 261.6 36.39 261.35 36.13 261.09 35.88 260.81 35.65 260.46 35.38 260.29 35.27 259.88 35.06 259.72 34.97 259.34 34.83 258.81 34.67 257.6 34.37 258.52 35.98 258.77 36.45 259 36.93 259.2 37.41 259.38 37.92 259.54 38.45 259.69 38.99 259.79 39.52 259.88 40.06 259.95 40.55 260.05 41.03 260.16 41.5 260.32 41.99 260.46 42.46 260.9 42.97 261.51 43.1 261.74 43.06 261.94 42.99 262.32 42.72 262.62 42.44 262.89 42.09 262.89 42.09 262.89 42.09"/><polygon class="cls-2" points="273.04 118.24 273.35 117.99 273.81 117.38 274.08 116.85 274.15 116.68 274.22 116.48 274.29 116.08 274.3 115.8 274.22 115.26 274.17 115.07 274.09 114.89 273.73 114.27 273.27 113.71 272.78 113.17 272.25 112.64 271.57 112.03 271.22 111.76 270.82 111.49 270.29 111.18 270.02 111.02 269.45 110.77 269.05 110.62 268.24 110.42 267.7 110.28 267 110.18 267.4 110.74 267.89 111.3 268.24 111.79 268.42 112.11 268.59 112.44 268.78 112.81 268.93 113.21 269.08 113.61 269.31 114.3 269.51 115.02 269.48 117.74 269.51 118.14 269.7 118.53 269.97 118.81 270.15 118.91 270.34 119.01 270.72 119.11 271.13 119.12 271.51 119.05 271.93 118.89 272.51 118.62 272.69 118.5 272.88 118.37 273.04 118.24 273.04 118.24 273.04 118.24"/><polygon class="cls-2" points="266.81 121.3 267.13 121.19 267.48 121.03 268.14 120.64 268.45 120.37 268.68 120.05 268.82 119.87 269 119.28 269.03 118.89 268.98 118.5 268.82 118.01 268.68 117.69 268.59 117.41 268.44 117.12 268.26 116.83 268.1 116.56 267.73 116.08 267.31 115.61 266.84 115.19 266.37 114.83 265.85 114.53 265.59 114.4 265.35 114.29 265.11 114.2 264.58 114.05 264.33 113.98 264.03 113.94 263.79 113.89 263.33 113.86 261.83 113.88 262.89 115.26 263.12 115.59 263.35 115.93 263.55 116.29 263.92 117.01 264 117.21 264.14 117.64 264.24 118.26 264.45 120.01 264.68 121.56 264.78 121.78 265.8 121.7 266.81 121.3 266.81 121.3 266.81 121.3"/><polygon class="cls-2" points="262.91 124.5 263.25 124.31 263.53 124.09 263.79 123.83 264.27 123.22 264.37 123.03 264.5 122.42 264.46 122.01 264.37 121.68 264.24 121.36 263.79 120.75 263.45 120.32 263.05 119.91 262.66 119.53 262.44 119.3 261.92 118.92 261.4 118.59 261.2 118.47 261 118.37 260.55 118.2 260.1 118.05 259.69 117.97 259.25 117.89 258.62 117.87 258.23 117.91 257.76 118 257.09 118.18 256.1 118.47 257.44 119.3 257.69 119.51 257.92 119.69 258.13 119.88 258.55 120.31 258.73 120.54 258.9 120.77 259.07 121.03 259.29 121.37 259.5 121.75 259.84 122.5 260 122.88 260.13 123.28 260.23 123.66 260.37 124.04 260.53 124.42 260.67 124.78 260.86 125.01 261.12 125.19 261.89 124.98 262.18 124.84 262.91 124.5 262.91 124.5 262.91 124.5"/><polygon class="cls-2" points="259.38 129.22 259.83 128.66 260.01 128.35 260.29 127.67 260.37 127.49 260.46 126.94 260.5 126.55 260.53 126.15 260.55 125.75 260.46 125.13 260.23 124.62 260.05 124.28 259.56 123.7 259.3 123.47 258.94 123.21 258.77 123.1 258.58 122.99 258.17 122.81 257.77 122.67 257.35 122.57 256.71 122.47 256.32 122.44 255.91 122.43 255.47 122.42 254.76 122.45 254.07 122.5 253.39 122.59 252.71 122.75 253.31 123.13 253.59 123.26 253.88 123.42 254.04 123.53 255.03 124.73 255.3 125.1 255.57 125.48 255.69 125.67 255.79 125.88 256.02 126.31 256.13 126.54 256.32 127.1 256.51 127.65 256.59 127.92 256.69 128.2 256.83 128.49 257.12 129.04 257.55 129.61 257.92 129.79 258.13 129.84 258.36 129.82 258.58 129.76 259.1 129.48 259.38 129.22 259.38 129.22 259.38 129.22"/><polygon class="cls-2" points="255.93 135.07 256.28 134.82 256.59 134.55 256.88 134.22 257.18 133.74 257.39 133.24 257.51 132.72 257.57 132.35 257.57 131.99 257.51 131.6 257.44 131.23 257.33 130.89 257.25 130.68 256.91 130.13 256.68 129.77 256.41 129.45 256.13 129.15 255.79 128.9 255.47 128.66 255.2 128.52 254.93 128.37 254.68 128.24 254.13 128.01 253.84 127.91 253.27 127.76 251.57 127.39 250.58 127.2 249.91 127.1 250.32 127.65 251.34 128.92 251.73 129.44 252.13 129.98 252.46 130.52 252.8 131.1 252.9 131.26 252.95 131.44 253.04 131.65 253.21 132.21 253.41 133.29 253.61 134.15 253.84 135.03 254.24 135.5 254.44 135.57 255.03 135.49 255.39 135.34 255.77 135.15 255.93 135.07 255.93 135.07 255.93 135.07"/><path class="cls-3" d="M488.9,214.71c1.36-5.72-5.25-18.82-7.12-28.4a19.37,19.37,0,0,1,.56-8.12c2.19-7.27,4.47-14.49,6.92-21.68l.89-2.76a79.87,79.87,0,0,0,2.16-10.09,34.23,34.23,0,0,0-.44-9.32l-1.12-5-1.23-5-.95-3.61a18.68,18.68,0,0,1,.95-5.79,116.93,116.93,0,0,0,4.08-11.32c2.27-10,1.77-20.39.15-30.46l-1.19-5.54c.46-.44.92-.88,1.35-1.34,4.58-5.43,3.35-12.22-2.6-16a11.56,11.56,0,0,0-10.06-.78l-2.84,1.34-3.1-1.11a50.78,50.78,0,0,0-11-2.11c-7.89-.3-16.2-.61-23.81,1.86-3.93,1.42-7.31,4-11.06,5.8a11.39,11.39,0,0,1-5,.65c-4.8.13-9.62.44-14.41.67-1,.13-1.75.29-2.11,1.3-.12,1.93.56,3.51.77,5.43.48,3.06,2.14,5.56,4,8a12.56,12.56,0,0,0,1.84,1.72c-.22,2.66-.06,4.69,1.56,6.88l.31.36.31.34,1,1a7.34,7.34,0,0,1,2.53-4.79,13,13,0,0,1,1.91-1.09c-.23,1.76-.77,4.71,1.65,5.23,1.66.37,2.59.43,3.95-.56.55,1.43,1.16,1.51,2.57,1.92s2.38.73,3.39-.26c.43-.44.88-.8,1.32-1.21,1.78,1.69,4.23,3.91,5.14,6.32a31.18,31.18,0,0,1,1,6.56c.05,1.29.6,2.77-1,2.92l-.94.11-.57.07c-.44-1.75-1.05-3.15-2.89-3.77-2-.48-3.79-.35-4.79,1.61l-.19.35a2.56,2.56,0,0,0-1.92-1.51c-2-.28-4,.36-4.67,2.45a5.64,5.64,0,0,1-2.11-3.26l-.12-.69c-1.72,1.47-2.88,2.73-3.15,5.07,0,.77.14,1.55-.84,1.59-2.55.87-1.29,3.37.35,4.46,2.69,1.4,5.63,1.29,8.56,1.45l6.52.24,4.45.17a12.37,12.37,0,0,1-.5,2.59c-1.14,3.13-4.12,5.45-6.89,7.08l-7.59,4.32-4.2,2.61c-3.32,2.62-6.62,5.2-9.73,8.09a55.88,55.88,0,0,0-4.34,5,43.76,43.76,0,0,0-7.77,20.65,37.87,37.87,0,0,0,0,5.37l.5,4.7,5.3-2.05.71,2.81c-7.57,3.7-15,7.44-22.46,11.37-5.48,2.87-10.94,5.9-16.64,8.31-3.31,1.31-7.63,2.69-11.25,2-1.78-.46-2.29-1.37-3.17-2.89l-2.73-5-2.4-4-2.6-3.86-2.67-3.55-2.83-3.43-2.2-2a3.88,3.88,0,0,1-2.76,2.93c-.92,0-2.23-.67-2.71.57a2.58,2.58,0,0,1-1.64,1.52l-1.34.53-1.35.8c-.45,1.59-1.16,1.81-2.56,2.46l-1.11.53c-.38,1.61-.41,3.08-1.88,4.07l-.35.18-.41.2-.44.15c-.08.88-.08,1.77-.19,2.64-.38,1.8-1.5,2.55-3.27,2.8,5,7.13,10.14,14.38,16.36,20.55A59.81,59.81,0,0,0,340,210a55.29,55.29,0,0,0,9.62,4.33,52.21,52.21,0,0,0,10.12,1.83c12.52.61,25-2,37.1-4.84l5.52-1.5,5.49-1.73,6.47-2.27,1.54,3-9.76,4.26s2,14.74,4.1,16.48S487.53,220.42,488.9,214.71Z" transform="translate(-60.43 -46.97)"/><path class="cls-3" d="M341.26,80a4.68,4.68,0,0,1-.67.69c-.88.66-2.42.28-3.39.07-.38-.08-.74-.54-1-.82a2.93,2.93,0,0,1-.58,1.43c-.59.63-2.24,1.44-3,.79a5.23,5.23,0,0,1-.56-.53,19.16,19.16,0,0,0-.41,2,2.33,2.33,0,0,1-2.31,1.61c-.37,0-1-.72-1.09-.67l-.17.06A2.3,2.3,0,0,1,327.6,86c-1.07,1.08-2.21.91-3.6.64a11,11,0,0,0-.39,1.82c-.11.6-.9,1.56-1.61,1.56a3.74,3.74,0,0,1-.6,0c1.56,2.49,2.81,4.63,4.25,7.21a11.51,11.51,0,0,1,.86,2l4.08,12.66a47.15,47.15,0,0,0,10.33,18.07,79.33,79.33,0,0,0,7.63,7.09,285,285,0,0,0,28.54,20.35c5.34,3.39,10.8,6.57,16.35,9.62,0-4.65-.09-9.32.23-14s2.1-8.9,4-13.13a56,56,0,0,1,6-10.5c.54-.7,1.2-1.37,1.77-2-5.91-1.75-11.81-3.49-17.7-5.11l-13.2-3.68a56.21,56.21,0,0,1-13.64-5.67,21.94,21.94,0,0,1-5.31-4.27,11.38,11.38,0,0,1-2.45-4l-6-16.9A15.32,15.32,0,0,0,342.78,81a12.11,12.11,0,0,0-1.52-1Z" transform="translate(-60.43 -46.97)"/><path class="cls-2" d="M415.67,73.58a5.91,5.91,0,0,0-.12,1c0,.23,0,.44,0,.67a3.64,3.64,0,0,0,0,.76c0,.3.12.55.14.85a4,4,0,0,0,.3.84,2.21,2.21,0,0,0,.28.67c.11.19.19.33.31.52s.34.49.52.75c.12-.27.18-.5.28-.76s.17-.35.23-.53a4.44,4.44,0,0,1,.33-.62c.16-.22.28-.39.44-.6s.3-.35.51-.54a3.71,3.71,0,0,1,.55-.42,2.3,2.3,0,0,1,.45-.33c.22-.15.45-.28.66-.44l-.75-.2c-.13-.05-.24-.08-.36-.11s-.33-.12-.55-.19l-.63-.22a5.11,5.11,0,0,0-.48-.2c-.23-.09-.44-.16-.67-.27l-.48-.2-1-.42Z" transform="translate(-60.43 -46.97)"/><path class="cls-4" d="M415.67,73.58a5.91,5.91,0,0,0-.12,1c0,.23,0,.44,0,.67a3.64,3.64,0,0,0,0,.76c0,.3.12.55.14.85a4,4,0,0,0,.3.84,2.21,2.21,0,0,0,.28.67c.11.19.19.33.31.52s.34.49.52.75c.12-.27.18-.5.28-.76s.17-.35.23-.53a4.44,4.44,0,0,1,.33-.62c.16-.22.28-.39.44-.6s.3-.35.51-.54a3.71,3.71,0,0,1,.55-.42,2.3,2.3,0,0,1,.45-.33c.22-.15.45-.28.66-.44l-.75-.2c-.13-.05-.24-.08-.36-.11s-.33-.12-.55-.19l-.63-.22a5.11,5.11,0,0,0-.48-.2c-.23-.09-.44-.16-.67-.27l-.48-.2-1-.42Z" transform="translate(-60.43 -46.97)"/><path class="cls-2" d="M423.23,76.08c-.06.27-.12.53-.16.8a5.81,5.81,0,0,0-.07.6,2.51,2.51,0,0,0-.08.76,3,3,0,0,0,.08.7,1.19,1.19,0,0,0,.13.47c.1.11.12.21.21.28a.8.8,0,0,0,.16.12l.5.23a4.17,4.17,0,0,0,.5.19,5.12,5.12,0,0,0,.53.11,1.86,1.86,0,0,0,.64,0,2,2,0,0,0,.58-.13,3.37,3.37,0,0,0,.54-.28,4.19,4.19,0,0,0,.4-.42,1.93,1.93,0,0,0,.31-.49,1.89,1.89,0,0,0,.21-.49,1,1,0,0,0,.11-.39,2.74,2.74,0,0,0,.12-.54c-.22-.11-.37-.2-.63-.31s-.18-.11-.3-.16-.37-.13-.56-.2l-.55-.2-.45-.11c-.26-.07-.44-.12-.73-.18h0l-1.49-.37Z" transform="translate(-60.43 -46.97)"/><path class="cls-4" d="M423.23,76.08c-.06.27-.12.53-.16.8a5.81,5.81,0,0,0-.07.6,2.51,2.51,0,0,0-.08.76,3,3,0,0,0,.08.7,1.19,1.19,0,0,0,.13.47c.1.11.12.21.21.28a.8.8,0,0,0,.16.12l.5.23a4.17,4.17,0,0,0,.5.19,5.12,5.12,0,0,0,.53.11,1.86,1.86,0,0,0,.64,0,2,2,0,0,0,.58-.13,3.37,3.37,0,0,0,.54-.28,4.19,4.19,0,0,0,.4-.42,1.93,1.93,0,0,0,.31-.49,1.89,1.89,0,0,0,.21-.49,1,1,0,0,0,.11-.39,2.74,2.74,0,0,0,.12-.54c-.22-.11-.37-.2-.63-.31s-.18-.11-.3-.16-.37-.13-.56-.2l-.55-.2-.45-.11c-.26-.07-.44-.12-.73-.18h0l-1.49-.37Z" transform="translate(-60.43 -46.97)"/><path class="cls-2" d="M428.9,78a5.17,5.17,0,0,0-.19.77,4.27,4.27,0,0,1-.08.62,1.14,1.14,0,0,0,.06.46,1.21,1.21,0,0,0,.15.48,2.68,2.68,0,0,0,.2.34,2,2,0,0,0,.26.23,2.56,2.56,0,0,0,.39.25,4.85,4.85,0,0,0,.48.21,6.39,6.39,0,0,0,.64.17l.58.12a3.21,3.21,0,0,0,.68.06,1.94,1.94,0,0,0,.52-.06.6.6,0,0,0,.27-.1,2.41,2.41,0,0,0,.34-.19,1.55,1.55,0,0,0,.3-.25,1.07,1.07,0,0,0,.2-.21.32.32,0,0,1,.11-.18,1.34,1.34,0,0,1,.11-.4l-.4-.32a1,1,0,0,0-.2-.14,3.94,3.94,0,0,0-.69-.46c-.36-.2-.68-.37-1-.54s-.63-.28-1-.42-.44-.16-.7-.23l-.34-.08L428.9,78Z" transform="translate(-60.43 -46.97)"/><path class="cls-4" d="M428.9,78a5.17,5.17,0,0,0-.19.77,4.27,4.27,0,0,1-.08.62,1.14,1.14,0,0,0,.06.46,1.21,1.21,0,0,0,.15.48,2.68,2.68,0,0,0,.2.34,2,2,0,0,0,.26.23,2.56,2.56,0,0,0,.39.25,4.85,4.85,0,0,0,.48.21,6.39,6.39,0,0,0,.64.17l.58.12a3.21,3.21,0,0,0,.68.06,1.94,1.94,0,0,0,.52-.06.6.6,0,0,0,.27-.1,2.41,2.41,0,0,0,.34-.19,1.55,1.55,0,0,0,.3-.25,1.07,1.07,0,0,0,.2-.21.32.32,0,0,1,.11-.18,1.34,1.34,0,0,1,.11-.4l-.4-.32a1,1,0,0,0-.2-.14,3.94,3.94,0,0,0-.69-.46c-.36-.2-.68-.37-1-.54s-.63-.28-1-.42-.44-.16-.7-.23l-.34-.08L428.9,78Z" transform="translate(-60.43 -46.97)"/><path class="cls-2" d="M420,98.26c.1.1.14.18.23.27a1.18,1.18,0,0,0,.13.1.82.82,0,0,0,.3.1,2.11,2.11,0,0,0,.44,0c.35,0,.67-.07,1-.12s.71-.14,1.11-.22c.16-.05.33-.09.46-.15l.35-.13a1.48,1.48,0,0,0,.19-.14.94.94,0,0,0,.11-.17.71.71,0,0,0,0-.17.84.84,0,0,0,0-.19s-.06-.07-.1-.11-.08-.11-.13-.17l-.63-.39a1.86,1.86,0,0,0-.26-.22c-.12-.11-.23-.21-.34-.33a5.27,5.27,0,0,1-.41-.47c-.13-.18-.24-.34-.37-.53a2.92,2.92,0,0,1-.23-.46,1.08,1.08,0,0,1-.11-.34,3.09,3.09,0,0,1-.23-.7,3,3,0,0,0-.44.6,2.22,2.22,0,0,0-.31.39c-.12.18-.2.34-.29.51s-.17.44-.25.68-.12.43-.15.67a4.22,4.22,0,0,0-.1.62c0,.15,0,.28,0,.43s0,.4,0,.62Z" transform="translate(-60.43 -46.97)"/><path class="cls-4" d="M420,98.26c.1.1.14.18.23.27a1.18,1.18,0,0,0,.13.1.82.82,0,0,0,.3.1,2.11,2.11,0,0,0,.44,0c.35,0,.67-.07,1-.12s.71-.14,1.11-.22c.16-.05.33-.09.46-.15l.35-.13a1.48,1.48,0,0,0,.19-.14.94.94,0,0,0,.11-.17.71.71,0,0,0,0-.17.84.84,0,0,0,0-.19s-.06-.07-.1-.11-.08-.11-.13-.17l-.63-.39a1.86,1.86,0,0,0-.26-.22c-.12-.11-.23-.21-.34-.33a5.27,5.27,0,0,1-.41-.47c-.13-.18-.24-.34-.37-.53a2.92,2.92,0,0,1-.23-.46,1.08,1.08,0,0,1-.11-.34,3.09,3.09,0,0,1-.23-.7,3,3,0,0,0-.44.6,2.22,2.22,0,0,0-.31.39c-.12.18-.2.34-.29.51s-.17.44-.25.68-.12.43-.15.67a4.22,4.22,0,0,0-.1.62c0,.15,0,.28,0,.43s0,.4,0,.62Z" transform="translate(-60.43 -46.97)"/><path class="cls-2" d="M431.57,97.54l.35.13.21,0a1.09,1.09,0,0,0,.34,0,4.27,4.27,0,0,0,.67,0h0l2.15-.23h0a10.14,10.14,0,0,0,1.05-.16c.16-.05.34-.11.5-.18l.12-.07a1.81,1.81,0,0,0,.38-.23,2.3,2.3,0,0,1,0-.37.25.25,0,0,0,0-.15.84.84,0,0,0-.1-.38,2.63,2.63,0,0,0-.37-.61,4.14,4.14,0,0,0-.64-.67,3.61,3.61,0,0,0-.76-.5,2.26,2.26,0,0,0-.95-.24,2.55,2.55,0,0,0-1,.13,2.82,2.82,0,0,0-.73.36,3.39,3.39,0,0,0-.59.57,2.67,2.67,0,0,0-.41.73,4.68,4.68,0,0,0-.21.85,2.91,2.91,0,0,0,0,.44c0,.2,0,.37,0,.56Z" transform="translate(-60.43 -46.97)"/><path class="cls-4" d="M431.57,97.54l.35.13.21,0a1.09,1.09,0,0,0,.34,0,4.27,4.27,0,0,0,.67,0h0l2.15-.23h0a10.14,10.14,0,0,0,1.05-.16c.16-.05.34-.11.5-.18l.12-.07a1.81,1.81,0,0,0,.38-.23,2.3,2.3,0,0,1,0-.37.25.25,0,0,0,0-.15.84.84,0,0,0-.1-.38,2.63,2.63,0,0,0-.37-.61,4.14,4.14,0,0,0-.64-.67,3.61,3.61,0,0,0-.76-.5,2.26,2.26,0,0,0-.95-.24,2.55,2.55,0,0,0-1,.13,2.82,2.82,0,0,0-.73.36,3.39,3.39,0,0,0-.59.57,2.67,2.67,0,0,0-.41.73,4.68,4.68,0,0,0-.21.85,2.91,2.91,0,0,0,0,.44c0,.2,0,.37,0,.56Z" transform="translate(-60.43 -46.97)"/><path class="cls-2" d="M425.38,97.83a1.49,1.49,0,0,0,.3.19l0,0a1.21,1.21,0,0,0,.39.08,6.24,6.24,0,0,0,.82,0l.32,0c.65,0,1.2,0,1.87,0a3.56,3.56,0,0,0,.89-.12.9.9,0,0,0,.37-.22c.07,0,.07,0,.07-.06s.12-.18.18-.28,0-.38,0-.6a1.2,1.2,0,0,0,0-.28.57.57,0,0,0-.1-.24,3,3,0,0,0-.23-.46,3.21,3.21,0,0,1-.23-.33c-.11-.11-.17-.2-.26-.3a2.82,2.82,0,0,0-.47-.37,1.65,1.65,0,0,0-.57-.22,2.16,2.16,0,0,0-.76-.06,2.82,2.82,0,0,0-.83.18,4.5,4.5,0,0,0-.5.19c-.17.09-.28.16-.48.27a2.34,2.34,0,0,0-.47.34.6.6,0,0,0-.18.18,3.49,3.49,0,0,0-.15.41v1.27c0,.16,0,.3,0,.47Z" transform="translate(-60.43 -46.97)"/><path class="cls-4" d="M425.38,97.83a1.49,1.49,0,0,0,.3.19l0,0a1.21,1.21,0,0,0,.39.08,6.24,6.24,0,0,0,.82,0l.32,0c.65,0,1.2,0,1.87,0a3.56,3.56,0,0,0,.89-.12.9.9,0,0,0,.37-.22c.07,0,.07,0,.07-.06s.12-.18.18-.28,0-.38,0-.6a1.2,1.2,0,0,0,0-.28.57.57,0,0,0-.1-.24,3,3,0,0,0-.23-.46,3.21,3.21,0,0,1-.23-.33c-.11-.11-.17-.2-.26-.3a2.82,2.82,0,0,0-.47-.37,1.65,1.65,0,0,0-.57-.22,2.16,2.16,0,0,0-.76-.06,2.82,2.82,0,0,0-.83.18,4.5,4.5,0,0,0-.5.19c-.17.09-.28.16-.48.27a2.34,2.34,0,0,0-.47.34.6.6,0,0,0-.18.18,3.49,3.49,0,0,0-.15.41v1.27c0,.16,0,.3,0,.47Z" transform="translate(-60.43 -46.97)"/><path class="cls-2" d="M478.16,62.4c.46-.47.9-.85,1.4-1.3.28-.22.5-.42.72-.61s.67-.5,1-.75.87-.57,1.35-.85.9-.52,1.42-.78c.37-.21.7-.35,1.12-.54l.84-.34c.6-.22,1.12-.39,1.73-.61h0l-.87-3.31h0c-.78.09-1.42.19-2.2.34a9.15,9.15,0,0,0-1.06.25,12.56,12.56,0,0,0-1.45.54c-.55.28-1.07.54-1.63.88A16.41,16.41,0,0,0,479,56.4a7.78,7.78,0,0,0-1.11,1,12.68,12.68,0,0,0-.86,1c-.47.59-.89,1.11-1.36,1.73h0l2.54,2.33Z" transform="translate(-60.43 -46.97)"/><path class="cls-4" d="M478.16,62.4c.46-.47.9-.85,1.4-1.3.28-.22.5-.42.72-.61s.67-.5,1-.75.87-.57,1.35-.85.9-.52,1.42-.78c.37-.21.7-.35,1.12-.54l.84-.34c.6-.22,1.12-.39,1.73-.61h0l-.87-3.31h0c-.78.09-1.42.19-2.2.34a9.15,9.15,0,0,0-1.06.25,12.56,12.56,0,0,0-1.45.54c-.55.28-1.07.54-1.63.88A16.41,16.41,0,0,0,479,56.4a7.78,7.78,0,0,0-1.11,1,12.68,12.68,0,0,0-.86,1c-.47.59-.89,1.11-1.36,1.73h0l2.54,2.33Z" transform="translate(-60.43 -46.97)"/><path class="cls-2" d="M456.28,70.56c-.19-.16-.35-.31-.55-.46a2.23,2.23,0,0,1-.24-.25,4.83,4.83,0,0,1-.78-.83c-.34-.45-.63-.84-.95-1.32a11.08,11.08,0,0,1-.72-1.23c-.38-.57-.67-1.05-1-1.62s-.65-1-1-1.6-.53-.79-.83-1.2A8.66,8.66,0,0,0,449,60.71a5.79,5.79,0,0,0-1-.76,7.39,7.39,0,0,0-1.33-.55,17.72,17.72,0,0,0-2.12-.44c-.61-.07-1.1-.11-1.67-.13a14.18,14.18,0,0,0-1.45,0,4.08,4.08,0,0,0-.89.16,4.35,4.35,0,0,0-.86.3,4.5,4.5,0,0,0-1.26.91,3.08,3.08,0,0,0-.78,1.08,6.68,6.68,0,0,0-.44,1.29c-.23.81-.34,1.5-.49,2.32-.06.37-.11.68-.17,1a3.36,3.36,0,0,1-.07.71.79.79,0,0,0,.06.42.28.28,0,0,0,.06.22.43.43,0,0,0,.16.12.46.46,0,0,0,.24.11,2.82,2.82,0,0,0,.54.09c.26,0,.49,0,.77,0h1.19c.1-.17.17-.33.27-.52a.61.61,0,0,1,.11-.27,3.82,3.82,0,0,1,.23-.6c.11-.44.22-.83.34-1.28s.22-.66.33-1a3.87,3.87,0,0,1,.26-.74,3.34,3.34,0,0,1,.29-.5,1.41,1.41,0,0,1,.45-.42,1,1,0,0,1,.36-.24,1.52,1.52,0,0,1,.35-.1l.42,0a2.69,2.69,0,0,1,.89.09l.38.13.28.18.23.21.22.2.34.43.89,1,.78,1.1s.51.78.82,1.17a5.55,5.55,0,0,1,.41.49,2.65,2.65,0,0,0,.33.39,2.36,2.36,0,0,0,.44.57c.23.23.34.37.62.65s.57.45.78.63a2.61,2.61,0,0,0,.66.34c1.42.23,1.33.53,3.62.86h0a1,1,0,0,0,.22,0c.51.05.94.11,1.46.16Z" transform="translate(-60.43 -46.97)"/><path class="cls-4" d="M456.28,70.56c-.19-.16-.35-.31-.55-.46a2.23,2.23,0,0,1-.24-.25,4.83,4.83,0,0,1-.78-.83c-.34-.45-.63-.84-.95-1.32a11.08,11.08,0,0,1-.72-1.23c-.38-.57-.67-1.05-1-1.62s-.65-1-1-1.6-.53-.79-.83-1.2A8.66,8.66,0,0,0,449,60.71a5.79,5.79,0,0,0-1-.76,7.39,7.39,0,0,0-1.33-.55,17.72,17.72,0,0,0-2.12-.44c-.61-.07-1.1-.11-1.67-.13a14.18,14.18,0,0,0-1.45,0,4.08,4.08,0,0,0-.89.16,4.35,4.35,0,0,0-.86.3,4.5,4.5,0,0,0-1.26.91,3.08,3.08,0,0,0-.78,1.08,6.68,6.68,0,0,0-.44,1.29c-.23.81-.34,1.5-.49,2.32-.06.37-.11.68-.17,1a3.36,3.36,0,0,1-.07.71.79.79,0,0,0,.06.42.28.28,0,0,0,.06.22.43.43,0,0,0,.16.12.46.46,0,0,0,.24.11,2.82,2.82,0,0,0,.54.09c.26,0,.49,0,.77,0h1.19c.1-.17.17-.33.27-.52a.61.61,0,0,1,.11-.27,3.82,3.82,0,0,1,.23-.6c.11-.44.22-.83.34-1.28s.22-.66.33-1a3.87,3.87,0,0,1,.26-.74,3.34,3.34,0,0,1,.29-.5,1.41,1.41,0,0,1,.45-.42,1,1,0,0,1,.36-.24,1.52,1.52,0,0,1,.35-.1l.42,0a2.69,2.69,0,0,1,.89.09l.38.13.28.18.23.21.22.2.34.43.89,1,.78,1.1s.51.78.82,1.17a5.55,5.55,0,0,1,.41.49,2.65,2.65,0,0,0,.33.39,2.36,2.36,0,0,0,.44.57c.23.23.34.37.62.65s.57.45.78.63a2.61,2.61,0,0,0,.66.34c1.42.23,1.33.53,3.62.86h0a1,1,0,0,0,.22,0c.51.05.94.11,1.46.16Z" transform="translate(-60.43 -46.97)"/></g><g id="Schriftzug"><path class="cls-5" d="M61.43,53.79h13.4c3.6,0,6.43,1,8.23,2.79a7,7,0,0,1,2,5v.09a7.6,7.6,0,0,1-5,7.28c3.73,1.12,6.75,3.28,6.75,7.6v.09c0,5.4-4.54,8.59-11.42,8.59h-14Zm20.06,8.32c0-3.1-2.47-5.13-7-5.13H64.93V67.82h9.31c4.27,0,7.24-1.93,7.24-5.62ZM74.87,71H64.93V82.07H75.5c4.77,0,7.73-2.11,7.73-5.62v-.09C83.24,72.94,80.36,71,74.87,71Z" transform="translate(-60.43 -46.97)"/><path class="cls-5" d="M93.89,53.79h22.75V57H97.44V67.77h17.18V71H97.44V82h19.43v3.24h-23Z" transform="translate(-60.43 -46.97)"/><path class="cls-5" d="M124,53.79h13.54c3.87,0,7,1.17,8.95,3.15a8.69,8.69,0,0,1,2.43,6.21v.09c0,5.22-3.6,8.27-8.54,9.17l9.67,12.86h-4.36L136.56,73h-9V85.27H124Zm13.22,16.05c4.72,0,8.09-2.43,8.09-6.48v-.09c0-3.87-3-6.21-8-6.21h-9.71V69.84Z" transform="translate(-60.43 -46.97)"/><path class="cls-5" d="M156.53,53.79h3.55V82H177.8v3.28H156.53Z" transform="translate(-60.43 -46.97)"/><path class="cls-5" d="M184.68,53.79h3.55V85.27h-3.55Z" transform="translate(-60.43 -46.97)"/><path class="cls-5" d="M197.45,53.79h3.33L220.61,79V53.79h3.46V85.27h-2.83L200.91,59.45V85.27h-3.46Z" transform="translate(-60.43 -46.97)"/><path class="cls-5" d="M61.43,112.35H72.35c9.89,0,16.73,6.79,16.73,15.65v.09c0,8.86-6.83,15.74-16.73,15.74H61.43ZM65,115.63v24.91h7.37c8,0,13-5.4,13-12.37v-.09c0-7-5.08-12.46-13-12.46Z" transform="translate(-60.43 -46.97)"/><path class="cls-5" d="M96.59,112.35h22.75v3.24h-19.2v10.75h17.18v3.24H100.14v11h19.43v3.24h-23Z" transform="translate(-60.43 -46.97)"/><path class="cls-5" d="M126.72,112.35h13.4c3.6,0,6.43,1,8.23,2.79a7,7,0,0,1,2,5v.09a7.6,7.6,0,0,1-5,7.28c3.73,1.12,6.75,3.28,6.75,7.6v.09c0,5.4-4.54,8.59-11.42,8.59h-14Zm20.06,8.32c0-3.1-2.47-5.13-7-5.13h-9.58v10.84h9.31c4.27,0,7.24-1.93,7.24-5.62Zm-6.61,8.86h-9.94v11.11h10.57c4.77,0,7.73-2.11,7.73-5.62v-.09C148.53,131.5,145.65,129.52,140.16,129.52Z" transform="translate(-60.43 -46.97)"/><path class="cls-5" d="M170.83,112.12h3.33l14.34,31.7h-3.82L181,135.5H163.86l-3.73,8.32h-3.64Zm8.77,20.15-7.15-16-7.19,16Z" transform="translate(-60.43 -46.97)"/><path class="cls-5" d="M199,115.63H188.41v-3.28h24.73v3.28H202.57v28.19H199Z" transform="translate(-60.43 -46.97)"/><path class="cls-5" d="M220.11,112.35h3.55v31.48h-3.55Z" transform="translate(-60.43 -46.97)"/><path class="cls-5" d="M232.88,112.35h3.33L256,137.57V112.35h3.46v31.48h-2.83L236.34,118v25.81h-3.46Z" transform="translate(-60.43 -46.97)"/><path class="cls-5" d="M267,128.18v-.09c0-8.63,6.34-16.28,15.78-16.28A16.58,16.58,0,0,1,294.53,116l-2.29,2.7a13.39,13.39,0,0,0-9.58-3.6c-7,0-12,5.89-12,12.91v.09c0,7.51,4.81,13.09,12.46,13.09a14.82,14.82,0,0,0,9.08-3.15V130.2h-9.58V127h13v12.55A19.08,19.08,0,0,1,283,144.36C273.13,144.36,267,137.17,267,128.18Z" transform="translate(-60.43 -46.97)"/><path class="cls-5" d="M60.93,189.21v-18.3h3.55V189c0,6.79,3.64,10.61,9.62,10.61,5.8,0,9.49-3.51,9.49-10.39v-18.3h3.55v18c0,9.17-5.26,13.94-13.13,13.94S60.93,198.11,60.93,189.21Z" transform="translate(-60.43 -46.97)"/><path class="cls-5" d="M95.55,170.91h3.33l19.83,25.23V170.91h3.46v31.48h-2.83L99,176.57v25.81H95.55Z" transform="translate(-60.43 -46.97)"/><path class="cls-5" d="M131.39,170.91h3.55v31.48h-3.55Z" transform="translate(-60.43 -46.97)"/><path class="cls-5" d="M142.77,186.74v-.09a16,16,0,0,1,16.1-16.28c9.58,0,16,7.51,16,16.19v.09a16,16,0,0,1-16.1,16.28C149.2,202.92,142.77,195.41,142.77,186.74Zm28.42,0v-.09c0-7.15-5.22-13-12.41-13s-12.32,5.76-12.32,12.91v.09c0,7.15,5.22,13,12.41,13S171.19,193.88,171.19,186.74Z" transform="translate(-60.43 -46.97)"/><path class="cls-5" d="M182.38,170.91h3.33l19.83,25.23V170.91H209v31.48h-2.83l-20.33-25.81v25.81h-3.46Z" transform="translate(-60.43 -46.97)"/></g></svg>